<svg width="13" height="13" viewBox="0 0 13 13" fill="none" xmlns="http://www.w3.org/2000/svg">
<path fill-rule="evenodd" clip-rule="evenodd" d="M0.792492 1.06417C0.979831 0.876885 1.23388 0.771675 1.49878 0.771675C1.76368 0.771675 2.01773 0.876885 2.20507 1.06417L6.49375 5.35285L10.7824 1.06417C10.8746 0.968753 10.9848 0.892647 11.1067 0.840291C11.2286 0.787935 11.3597 0.760376 11.4923 0.759224C11.625 0.758071 11.7565 0.783347 11.8793 0.833577C12.0021 0.883808 12.1136 0.957986 12.2074 1.05178C12.3012 1.14558 12.3754 1.25712 12.4256 1.3799C12.4758 1.50267 12.5011 1.63422 12.5 1.76686C12.4988 1.89951 12.4713 2.03059 12.4189 2.15248C12.3665 2.27436 12.2904 2.38459 12.195 2.47675L7.90633 6.76543L12.195 11.0541C12.377 11.2425 12.4777 11.4949 12.4754 11.7568C12.4731 12.0187 12.3681 12.2693 12.1828 12.4545C11.9976 12.6397 11.7471 12.7448 11.4851 12.7471C11.2232 12.7494 10.9709 12.6487 10.7824 12.4667L6.49375 8.17801L2.20507 12.4667C2.01666 12.6487 1.76431 12.7494 1.50238 12.7471C1.24044 12.7448 0.989883 12.6397 0.804661 12.4545C0.61944 12.2693 0.514376 12.0187 0.5121 11.7568C0.509824 11.4949 0.610517 11.2425 0.792492 11.0541L5.08118 6.76543L0.792492 2.47675C0.60521 2.28941 0.5 2.03535 0.5 1.77046C0.5 1.50556 0.60521 1.25151 0.792492 1.06417Z" fill="#F5F5F5"/>
</svg>
