<svg width="21" height="20" viewBox="0 0 21 20" fill="none" xmlns="http://www.w3.org/2000/svg">
<path d="M10.5003 2.49888e-09C8.12574 -5.30577e-05 5.82862 0.84489 4.02004 2.38363C2.21146 3.92236 1.00946 6.05447 0.629124 8.3984C0.248793 10.7423 0.714958 13.1451 1.9442 15.1768C3.17344 17.2084 5.08553 18.7364 7.33831 19.4872C7.83831 19.5752 8.02531 19.2752 8.02531 19.0122C8.02531 18.7752 8.01331 17.9872 8.01331 17.1501C5.50029 17.6122 4.85028 16.5371 4.65028 15.9751C4.42842 15.4279 4.07661 14.9429 3.62527 14.5621C3.27527 14.3751 2.77527 13.9121 3.61227 13.9001C3.93216 13.9347 4.23898 14.046 4.50671 14.2244C4.77445 14.4028 4.99522 14.6432 5.15029 14.9251C5.28702 15.1708 5.47089 15.3871 5.69136 15.5616C5.91183 15.7361 6.16456 15.8653 6.43508 15.942C6.7056 16.0186 6.98858 16.0411 7.26781 16.0082C7.54704 15.9753 7.81703 15.8876 8.06231 15.7501C8.10563 15.2415 8.33238 14.766 8.70032 14.4121C6.4753 14.1621 4.15028 13.3001 4.15028 9.47508C4.13611 8.48105 4.50286 7.51928 5.17529 6.78706C4.86959 5.92327 4.90536 4.97533 5.27529 4.13704C5.27529 4.13704 6.11229 3.87503 8.02531 5.16205C9.66161 4.71199 11.3891 4.71199 13.0254 5.16205C14.9374 3.86203 15.7754 4.13704 15.7754 4.13704C16.1454 4.97531 16.1812 5.92328 15.8754 6.78706C16.5498 7.51802 16.9169 8.48063 16.9004 9.47508C16.9004 13.3121 14.5624 14.1621 12.3373 14.4121C12.576 14.654 12.7598 14.9444 12.8763 15.2636C12.9928 15.5829 13.0392 15.9234 13.0124 16.2621C13.0124 17.6002 13.0004 18.6752 13.0004 19.0122C13.0004 19.2752 13.1874 19.5872 13.6874 19.4872C15.936 18.7301 17.8424 17.1985 19.0662 15.1659C20.2901 13.1332 20.7517 10.7318 20.3688 8.39026C19.9859 6.04871 18.7832 3.91946 16.9756 2.3826C15.168 0.845737 12.873 0.00129007 10.5003 2.49888e-09Z" fill="white"/>
</svg>
