<svg width="23" height="22" viewBox="0 0 23 22" fill="none" xmlns="http://www.w3.org/2000/svg">
<path d="M21.3571 0.9375H1.63772C0.734152 0.9375 0 1.58887 0 2.38848V19.6115C0 20.4111 0.734152 21.0625 1.63772 21.0625H21.3571C22.2607 21.0625 23 20.4111 23 19.6115V2.38848C23 1.58887 22.2607 0.9375 21.3571 0.9375ZM6.95134 18.1875H3.54241V8.5832H6.95647V18.1875H6.95134ZM5.24687 7.27148C4.15335 7.27148 3.27031 6.49434 3.27031 5.54199C3.27031 4.58965 4.15335 3.8125 5.24687 3.8125C6.33527 3.8125 7.22344 4.58965 7.22344 5.54199C7.22344 6.49883 6.3404 7.27148 5.24687 7.27148ZM19.7297 18.1875H16.3208V13.5156C16.3208 12.4016 16.2951 10.9686 14.5496 10.9686C12.7732 10.9686 12.5011 12.1814 12.5011 13.4348V18.1875H9.09219V8.5832H12.3625V9.89492H12.4087C12.8656 9.14023 13.9797 8.34512 15.6379 8.34512C19.0879 8.34512 19.7297 10.3352 19.7297 12.9227V18.1875Z" fill="white"/>
</svg>
